# xmcd CD database file
#
# Track frame offsets:
#	187
#	14440
#	28337
#	40865
#	55995
#	70297
#	85320
#	98697
#	111322
#	124785
#	140382
#	152212
#	167052
#	182307
#	195040
#	209730
#	223277
#	235922
#	249400
#	261945
#	273897
#	286917
#	298837
#	312240
#	323037
#	335805
#
# Disc length: 4652 seconds
#
# Revision: 0
# Processed by: cddbd v1.5.1PL2 Copyright (c) Steve Scherf et al.
# Submitted via: CDex 1.51
#
DISCID=8c122a1a
DTITLE=Various Artist - LEGENDARY BOOGIE WOOGIE PIANISTS 1928-1946
DYEAR=1997
DGENRE=Blues
TTITLE0=COW COW BUES/COW COW DAVENPORT
TTITLE1=STATE STREET JIVE/COW COW DAVENPORT
TTITLE2=PINE TOP BLUES/PIN TOP SMITH
TTITLE3=PINE TOP BOOGIE WOOGIE(Alt.Take)/PINE TOP SMITH
TTITLE4=I'M SOBER NOW/PINE TOP SMITH
TTITLE5=JUMP STEADY BLUES/PINE TOP SMITH
TTITLE6=HEAD RAG HOP/ROMEO NELSON
TTITLE7=WILKINS STREET STOMP/SPECKLED RED
TTITLE8=THE DIRTY DOZEN NO.2/SPECKLED RED
TTITLE9=INDIANA AVENUE STOMP/MONTANA TAYLOR
TTITLE10=THIRTY-ONE BLUES/BOB CALL
TTITLE11=FIVES/TURNER PARRISH
TTITLE12=TEXAS STOMP/DOT RICE
TTITLE13=HONKY TONK TRAIN BLUES/MEADE LUX LEWIS
TTITLE14=YANCEY SPECIAL/MEADE LUX LEWIS
TTITLE15=MR.FREDDIE BLUES/MEADE LUX LEWIS
TTITLE16=ORIGINAL MR.FREDDIE BLUES/HARRY "FREDDIE"SHAYNE
TTITLE17=BOOGIE WOOGIE STOMP/ALBERT AMMONES and HIS RHYTHM KINGS
TTITLE18=OVERHAND/MARY LOU WILLIAMS
TTITLE19=THE ROCKS/MARY LOU WILLIAMS
TTITLE20=(PINE TOP'S)BOOGIE WOOGIE/HONEY HILL
TTITLE21=HOLD 'EM HOOTIE/JAY McSHANN
TTITLE22=DEATH RAY BOOGIE/PETE JOHNSON
TTITLE23=ANSWER TO THE BOOGIE/PETE JOHNSON
TTITLE24=BOOGIE WOOGIE COCKTAIL/ANDY KIRK and HIS TWELVE CLOUDS OF JOY
TTITLE25=JACK THE FOX BOOGIE/LIONEL HAMPTON and HIS OCTET
EXTD=YEAR: 1997
EXTT0=
EXTT1=
EXTT2=
EXTT3=
EXTT4=
EXTT5=
EXTT6=
EXTT7=
EXTT8=
EXTT9=
EXTT10=
EXTT11=
EXTT12=
EXTT13=
EXTT14=
EXTT15=
EXTT16=
EXTT17=
EXTT18=
EXTT19=
EXTT20=
EXTT21=
EXTT22=
EXTT23=
EXTT24=
EXTT25=
PLAYORDER=
